<?xml version="1.0" standalone="no"?>
<!DOCTYPE svg PUBLIC "-//W3C//DTD SVG 20010904//EN"
 "http://www.w3.org/TR/2001/REC-SVG-20010904/DTD/svg10.dtd">
<svg version="1.0" xmlns="http://www.w3.org/2000/svg"
 width="512.000000pt" height="512.000000pt" viewBox="0 0 512.000000 512.000000"
 preserveAspectRatio="xMidYMid meet">
<metadata>
Created by potrace 1.11, written by Peter Selinger 2001-2013
</metadata>
<g transform="translate(0.000000,512.000000) scale(0.100000,-0.100000)"
fill="#000000" stroke="none">
<path d="M2360 5059 c-1075 -81 -1979 -844 -2240 -1888 -252 -1013 144 -2074
995 -2666 543 -377 1214 -527 1858 -415 744 130 1367 565 1752 1224 69 118
157 310 144 314 -5 2 -9 10 -9 18 0 7 6 11 14 8 24 -9 109 269 146 483 98 564
-11 1184 -295 1669 -431 737 -1155 1190 -2005 1254 -149 11 -205 11 -360 -1z
m1440 -619 c0 -5 -4 -10 -10 -10 -5 0 -10 5 -10 10 0 6 5 10 10 10 6 0 10 -4
10 -10z m-70 -546 c0 -8 -7 -14 -15 -14 -15 0 -21 21 -9 33 10 9 24 -2 24 -19z
m-2950 -134 c0 -5 -4 -10 -10 -10 -5 0 -10 5 -10 10 0 6 5 10 10 10 6 0 10 -4
10 -10z m1665 -280 c0 -18 -6 -26 -23 -28 -13 -2 -25 3 -28 12 -10 26 4 48 28
44 17 -2 23 -10 23 -28z m1305 -20 c0 -5 -4 -10 -10 -10 -5 0 -10 5 -10 10 0
6 5 10 10 10 6 0 10 -4 10 -10z m-1915 -10 c3 -5 1 -10 -4 -10 -6 0 -11 5 -11
10 0 6 2 10 4 10 3 0 8 -4 11 -10z m355 -45 c0 -8 -7 -15 -15 -15 -8 0 -15 7
-15 15 0 8 7 15 15 15 8 0 15 -7 15 -15z m295 -25 c3 -5 -1 -10 -10 -10 -9 0
-13 5 -10 10 3 6 8 10 10 10 2 0 7 -4 10 -10z m335 -10 c0 -5 -5 -10 -11 -10
-5 0 -7 5 -4 10 3 6 8 10 11 10 2 0 4 -4 4 -10z m410 -10 c0 -11 -4 -20 -9
-20 -14 0 -23 18 -16 30 10 17 25 11 25 -10z m-717 -205 c21 -4 27 -3 21 6 -4
7 -3 9 4 5 9 -5 106 -16 152 -17 33 0 146 -23 157 -32 7 -5 24 -6 38 -3 14 4
25 2 25 -4 0 -5 6 -10 13 -10 20 0 87 -37 80 -44 -6 -5 22 -10 55 -9 6 1 12
-4 12 -11 0 -6 12 -12 27 -13 14 0 34 -10 42 -20 9 -11 31 -26 49 -33 17 -7
32 -16 32 -21 0 -5 3 -8 8 -8 20 3 32 -2 32 -15 0 -15 27 -29 40 -21 4 3 10
-5 13 -16 3 -12 10 -18 15 -15 5 3 22 -6 38 -19 16 -14 36 -23 46 -19 9 3 22
-3 30 -14 14 -19 56 -39 98 -47 43 -8 194 -56 223 -71 16 -8 40 -14 53 -14 13
0 24 -5 24 -10 0 -7 13 -8 35 -4 23 4 35 2 35 -5 0 -7 15 -27 34 -46 21 -21
30 -36 23 -39 -7 -3 3 -4 21 -3 51 5 47 -9 -6 -23 -26 -7 -60 -19 -75 -27 -33
-16 -46 -11 -27 12 10 12 10 15 -3 15 -9 0 -22 -7 -30 -15 -18 -18 -124 -34
-257 -40 -52 -3 -135 -7 -185 -10 -49 -4 -182 -6 -294 -5 -137 0 -208 -4 -217
-11 -10 -8 -18 -8 -27 -1 -7 6 -63 11 -127 12 -189 2 -220 0 -220 -10 0 -5 25
-10 56 -10 58 0 99 -14 89 -31 -4 -5 6 -9 22 -10 15 0 66 -3 112 -5 53 -2 89
0 98 7 9 8 17 8 26 1 16 -13 134 -27 211 -24 52 2 111 -5 207 -24 20 -4 27
-11 27 -29 0 -16 -5 -22 -14 -18 -8 3 -14 0 -14 -7 0 -6 -4 -8 -10 -5 -5 3
-22 -7 -36 -22 -14 -15 -28 -26 -30 -24 -3 2 -15 0 -27 -4 -12 -4 -28 -6 -34
-6 -7 1 -13 -5 -13 -13 0 -9 -6 -13 -14 -10 -8 3 -17 1 -21 -5 -3 -6 1 -11 9
-11 9 0 16 -5 16 -11 0 -6 -8 -8 -19 -4 -19 6 -59 -10 -73 -30 -5 -6 -8 -5 -8
2 0 9 -12 6 -36 -8 -20 -11 -47 -19 -59 -17 -12 1 -30 -4 -40 -12 -17 -14 -26
-17 -75 -23 -14 -2 -31 -6 -37 -10 -6 -4 -64 -9 -129 -13 -65 -3 -120 -7 -123
-9 -2 -3 -11 0 -18 7 -11 9 -17 9 -24 -3 -6 -9 -12 -10 -16 -4 -5 6 -35 10
-68 10 -33 -1 -65 2 -70 6 -18 13 -64 18 -70 8 -4 -5 -11 -9 -16 -9 -6 0 -7 5
-3 12 4 6 3 8 -3 5 -6 -4 -24 0 -39 8 -16 8 -41 15 -56 15 -16 0 -28 4 -28 9
0 5 -18 11 -40 15 -22 3 -40 10 -40 14 0 4 -9 8 -20 9 -11 1 -34 11 -50 23
-17 12 -37 23 -45 24 -8 1 -23 10 -35 21 -11 10 -23 15 -27 12 -3 -4 -14 3
-24 15 -11 11 -19 17 -19 12 0 -5 -11 3 -24 19 -13 15 -27 27 -31 27 -14 0
-51 47 -47 60 3 7 -2 16 -9 21 -19 12 -4 23 17 11 9 -5 32 -6 53 -1 62 13 105
13 130 0 20 -11 25 -11 33 3 12 21 88 23 88 1 0 -9 6 -12 15 -9 8 4 12 10 10
15 -9 14 44 22 69 11 17 -8 30 -7 48 2 14 8 31 10 39 6 8 -5 47 -7 87 -6 40 1
78 -1 84 -5 6 -4 17 -1 25 6 7 8 20 12 28 9 9 -4 15 0 15 7 0 14 -11 16 -177
24 -33 2 -78 6 -100 9 -37 6 -99 11 -248 21 -176 12 -580 64 -645 83 -30 8
-77 16 -105 15 -38 0 -53 5 -63 19 -8 11 -21 17 -30 13 -25 -7 -116 30 -120
49 -2 9 1 16 7 16 6 0 20 9 32 21 16 16 29 20 51 15 18 -4 38 0 53 10 14 9 51
18 82 21 32 2 92 11 133 19 41 8 85 16 98 19 12 2 26 6 30 9 5 3 25 6 45 8 21
1 37 6 37 10 0 5 6 8 13 7 6 -1 21 1 32 5 11 4 32 12 48 18 15 6 27 15 27 20
0 6 7 8 15 4 10 -3 15 1 15 14 0 26 17 34 28 14 8 -14 12 -13 37 10 15 14 34
26 41 26 8 0 14 4 14 8 0 4 23 16 50 27 28 11 50 23 50 26 0 4 18 10 40 14 22
4 38 10 35 15 -6 10 19 20 50 20 13 0 27 5 30 10 4 6 10 8 15 5 10 -6 60 15
60 26 0 11 44 7 52 -6 5 -6 8 -2 8 8 0 12 6 17 18 15 9 -1 22 1 29 5 6 4 14 3
18 -3 4 -6 13 -7 23 -1 9 5 43 8 75 7 31 -1 57 1 57 6 0 4 6 6 13 4 6 -3 25
-7 40 -11z m1487 -355 c0 -5 -4 -10 -10 -10 -5 0 -10 5 -10 10 0 6 5 10 10 10
6 0 10 -4 10 -10z m-1220 -340 c0 -4 -15 -10 -32 -13 -36 -5 -78 10 -60 22 14
9 92 1 92 -9z m145 0 c3 -5 -1 -10 -9 -10 -9 0 -16 5 -16 10 0 6 4 10 9 10 6
0 13 -4 16 -10z m1626 -65 c-1 -15 -24 -12 -29 3 -3 9 2 13 12 10 10 -1 17 -7
17 -13z m-2851 -135 c0 -5 -4 -10 -9 -10 -6 0 -13 5 -16 10 -3 6 1 10 9 10 9
0 16 -4 16 -10z m2830 -250 c0 -5 -4 -10 -10 -10 -5 0 -10 5 -10 10 0 6 5 10
10 10 6 0 10 -4 10 -10z m-3475 -40 c3 -5 1 -10 -4 -10 -6 0 -11 5 -11 10 0 6
2 10 4 10 3 0 8 -4 11 -10z m1665 -76 c0 -9 -5 -14 -12 -12 -18 6 -21 28 -4
28 9 0 16 -7 16 -16z m820 -24 c0 -5 -4 -10 -10 -10 -5 0 -10 5 -10 10 0 6 5
10 10 10 6 0 10 -4 10 -10z m-1270 -35 c0 -8 -4 -15 -10 -15 -5 0 -10 7 -10
15 0 8 5 15 10 15 6 0 10 -7 10 -15z m-1530 -16 c0 -5 -4 -9 -10 -9 -5 0 -10
7 -10 16 0 8 5 12 10 9 6 -3 10 -10 10 -16z m3955 -80 c4 -5 9 -32 12 -58 4
-48 4 -48 -28 -55 -57 -11 -76 -7 -94 20 -21 32 -13 90 13 97 34 9 91 7 97 -4z
m-2567 -416 c-2 -10 -10 -18 -18 -18 -8 0 -16 8 -18 18 -2 12 3 17 18 17 15 0
20 -5 18 -17z m-578 -58 c0 -8 -7 -15 -15 -15 -8 0 -15 7 -15 15 0 8 7 15 15
15 8 0 15 -7 15 -15z m1680 -105 c0 -5 -5 -10 -11 -10 -5 0 -7 5 -4 10 3 6 8
10 11 10 2 0 4 -4 4 -10z m950 -24 c0 -11 -19 -15 -25 -6 -3 5 1 10 9 10 9 0
16 -2 16 -4z m-2220 -131 c0 -8 -4 -15 -10 -15 -5 0 -10 7 -10 15 0 8 5 15 10
15 6 0 10 -7 10 -15z m85 -74 c7 -12 -12 -24 -25 -16 -11 7 -4 25 10 25 5 0
11 -4 15 -9z m1835 -401 c0 -5 -4 -10 -10 -10 -5 0 -10 5 -10 10 0 6 5 10 10
10 6 0 10 -4 10 -10z m-1904 -81 c10 -17 -13 -36 -27 -22 -12 12 -4 33 11 33
5 0 12 -5 16 -11z m242 -116 c5 -17 -26 -29 -40 -15 -6 6 -7 15 -3 22 9 14 37
9 43 -7z m342 -173 c0 -5 -4 -10 -10 -10 -5 0 -10 5 -10 10 0 6 5 10 10 10 6
0 10 -4 10 -10z"/>
</g>
</svg>
