<svg version="1.0" xmlns="http://www.w3.org/2000/svg" width="682.667" height="682.667" viewBox="0 0 512 512"><path d="M236 6.1C128.5 14.2 38.1 90.5 12 194.9c-25.2 101.3 14.4 207.4 99.5 266.6 54.3 37.7 121.4 52.7 185.8 41.5 74.4-13 136.7-56.5 175.2-122.4 6.9-11.8 15.7-31 14.4-31.4-.5-.2-.9-1-.9-1.8 0-.7.6-1.1 1.4-.8 2.4.9 10.9-26.9 14.6-48.3 9.8-56.4-1.1-118.4-29.5-166.9C429.4 57.7 357 12.4 272 6c-14.9-1.1-20.5-1.1-36 .1zM380 68c0 .5-.4 1-1 1-.5 0-1-.5-1-1 0-.6.5-1 1-1 .6 0 1 .4 1 1zm-7 54.6c0 .8-.7 1.4-1.5 1.4-1.5 0-2.1-2.1-.9-3.3 1-.9 2.4.2 2.4 1.9zM78 136c0 .5-.4 1-1 1-.5 0-1-.5-1-1 0-.6.5-1 1-1 .6 0 1 .4 1 1zm166.5 28c0 1.8-.6 2.6-2.3 2.8-1.3.2-2.5-.3-2.8-1.2-1-2.6.4-4.8 2.8-4.4 1.7.2 2.3 1 2.3 2.8zm130.5 2c0 .5-.4 1-1 1-.5 0-1-.5-1-1 0-.6.5-1 1-1 .6 0 1 .4 1 1zm-191.5 1c.3.5.1 1-.4 1-.6 0-1.1-.5-1.1-1 0-.6.2-1 .4-1 .3 0 .8.4 1.1 1zm35.5 4.5c0 .8-.7 1.5-1.5 1.5s-1.5-.7-1.5-1.5.7-1.5 1.5-1.5 1.5.7 1.5 1.5zm29.5 2.5c.3.5-.1 1-1 1s-1.3-.5-1-1c.3-.6.8-1 1-1 .2 0 .7.4 1 1zm33.5 1c0 .5-.5 1-1.1 1-.5 0-.7-.5-.4-1 .3-.6.8-1 1.1-1 .2 0 .4.4.4 1zm41 1c0 1.1-.4 2-.9 2-1.4 0-2.3-1.8-1.6-3 1-1.7 2.5-1.1 2.5 1zm-71.7 20.5c2.1.4 2.7.3 2.1-.6-.4-.7-.3-.9.4-.5.9.5 10.6 1.6 15.2 1.7 3.3 0 14.6 2.3 15.7 3.2.7.5 2.4.6 3.8.3 1.4-.4 2.5-.2 2.5.4 0 .5.6 1 1.3 1 2 0 8.7 3.7 8 4.4-.6.5 2.2 1 5.5.9.6-.1 1.2.4 1.2 1.1 0 .6 1.2 1.2 2.7 1.3 1.4 0 3.4 1 4.2 2 .9 1.1 3.1 2.6 4.9 3.3 1.7.7 3.2 1.6 3.2 2.1s.3.8.8.8c2-.3 3.2.2 3.2 1.5 0 1.5 2.7 2.9 4 2.1.4-.3 1 .5 1.3 1.6.3 1.2 1 1.8 1.5 1.5.5-.3 2.2.6 3.8 1.9 1.6 1.4 3.6 2.3 4.6 1.9.9-.3 2.2.3 3 1.4 1.4 1.9 5.6 3.9 9.8 4.7 4.3.8 19.4 5.6 22.3 7.1 1.6.8 4 1.4 5.3 1.4 1.3 0 2.4.5 2.4 1 0 .7 1.3.8 3.5.4 2.3-.4 3.5-.2 3.5.5s1.5 2.7 3.4 4.6c2.1 2.1 3 3.6 2.3 3.9-.7.3.3.4 2.1.3 5.1-.5 4.7.9-.6 2.3-2.6.7-6 1.9-7.5 2.7-3.3 1.6-4.6 1.1-2.7-1.2 1-1.2 1-1.5-.3-1.5-.9 0-2.2.7-3 1.5-1.8 1.8-12.4 3.4-25.7 4-5.2.3-13.5.7-18.5 1-4.9.4-18.2.6-29.4.5-13.7 0-20.8.4-21.7 1.1-1 .8-1.8.8-2.7.1-.7-.6-6.3-1.1-12.7-1.2-18.9-.2-22 0-22 1 0 .5 2.5 1 5.6 1 5.8 0 9.9 1.4 8.9 3.1-.4.5.6.9 2.2 1 1.5 0 6.6.3 11.2.5 5.3.2 8.9 0 9.8-.7.9-.8 1.7-.8 2.6-.1 1.6 1.3 13.4 2.7 21.1 2.4 5.2-.2 11.1.5 20.7 2.4 2 .4 2.7 1.1 2.7 2.9 0 1.6-.5 2.2-1.4 1.8-.8-.3-1.4 0-1.4.7 0 .6-.4.8-1 .5-.5-.3-2.2.7-3.6 2.2-1.4 1.5-2.8 2.6-3 2.4-.3-.2-1.5 0-2.7.4-1.2.4-2.8.6-3.4.6-.7-.1-1.3.5-1.3 1.3 0 .9-.6 1.3-1.4 1-.8-.3-1.7-.1-2.1.5-.3.6.1 1.1.9 1.1.9 0 1.6.5 1.6 1.1 0 .6-.8.8-1.9.4-1.9-.6-5.9 1-7.3 3-.5.6-.8.5-.8-.2 0-.9-1.2-.6-3.6.8-2 1.1-4.7 1.9-5.9 1.7-1.2-.1-3 .4-4 1.2-1.7 1.4-2.6 1.7-7.5 2.3-1.4.2-3.1.6-3.7 1-.6.4-6.4.9-12.9 1.3-6.5.3-12 .7-12.3.9-.2.3-1.1 0-1.8-.7-1.1-.9-1.7-.9-2.4.3-.6.9-1.2 1-1.6.4-.5-.6-3.5-1-6.8-1-3.3.1-6.5-.2-7-.6-1.8-1.3-6.4-1.8-7-.8-.4.5-1.1.9-1.6.9-.6 0-.7-.5-.3-1.2.4-.6.3-.8-.3-.5-.6.4-2.4 0-3.9-.8-1.6-.8-4.1-1.5-5.6-1.5-1.6 0-2.8-.4-2.8-.9s-1.8-1.1-4-1.5c-2.2-.3-4-1-4-1.4 0-.4-.9-.8-2-.9-1.1-.1-3.4-1.1-5-2.3-1.7-1.2-3.7-2.3-4.5-2.4-.8-.1-2.3-1-3.5-2.1-1.1-1-2.3-1.5-2.7-1.2-.3.4-1.4-.3-2.4-1.5-1.1-1.1-1.9-1.7-1.9-1.2s-1.1-.3-2.4-1.9c-1.3-1.5-2.7-2.7-3.1-2.7-1.4 0-5.1-4.7-4.7-6 .3-.7-.2-1.6-.9-2.1-1.9-1.2-.4-2.3 1.7-1.1.9.5 3.2.6 5.3.1 6.2-1.3 10.5-1.3 13 0 2 1.1 2.5 1.1 3.3-.3 1.2-2.1 8.8-2.3 8.8-.1 0 .9.6 1.2 1.5.9.8-.4 1.2-1 1-1.5-.9-1.4 4.4-2.2 6.9-1.1 1.7.8 3 .7 4.8-.2 1.4-.8 3.1-1 3.9-.6.8.5 4.7.7 8.7.6 4-.1 7.8.1 8.4.5.6.4 1.7.1 2.5-.6.7-.8 2-1.2 2.8-.9.9.4 1.5 0 1.5-.7 0-1.4-1.1-1.6-17.7-2.4-3.3-.2-7.8-.6-10-.9-3.7-.6-9.9-1.1-24.8-2.1-17.6-1.2-58-6.4-64.5-8.3-3-.8-7.7-1.6-10.5-1.5-3.8 0-5.3-.5-6.3-1.9-.8-1.1-2.1-1.7-3-1.3-2.5.7-11.6-3-12-4.9-.2-.9.1-1.6.7-1.6s2-.9 3.2-2.1c1.6-1.6 2.9-2 5.1-1.5 1.8.4 3.8 0 5.3-1 1.4-.9 5.1-1.8 8.2-2.1 3.2-.2 9.2-1.1 13.3-1.9 4.1-.8 8.5-1.6 9.8-1.9 1.2-.2 2.6-.6 3-.9.5-.3 2.5-.6 4.5-.8 2.1-.1 3.7-.6 3.7-1 0-.5.6-.8 1.3-.7.6.1 2.1-.1 3.2-.5s3.2-1.2 4.8-1.8c1.5-.6 2.7-1.5 2.7-2 0-.6.7-.8 1.5-.4 1 .3 1.5-.1 1.5-1.4 0-2.6 1.7-3.4 2.8-1.4.8 1.4 1.2 1.3 3.7-1 1.5-1.4 3.4-2.6 4.1-2.6.8 0 1.4-.4 1.4-.8s2.3-1.6 5-2.7c2.8-1.1 5-2.3 5-2.6 0-.4 1.8-1 4-1.4 2.2-.4 3.8-1 3.5-1.5-.6-1 1.9-2 5-2 1.3 0 2.7-.5 3-1 .4-.6 1-.8 1.5-.5 1 .6 6-1.5 6-2.6s4.4-.7 5.2.6c.5.6.8.2.8-.8 0-1.2.6-1.7 1.8-1.5.9.1 2.2-.1 2.9-.5.6-.4 1.4-.3 1.8.3.4.6 1.3.7 2.3.1.9-.5 4.3-.8 7.5-.7 3.1.1 5.7-.1 5.7-.6 0-.4.6-.6 1.3-.4.6.3 2.5.7 4 1.1zM400 232c0 .5-.4 1-1 1-.5 0-1-.5-1-1 0-.6.5-1 1-1 .6 0 1 .4 1 1zm-122 34c0 .4-1.5 1-3.2 1.3-3.6.5-7.8-1-6-2.2 1.4-.9 9.2-.1 9.2.9zm14.5 0c.3.5-.1 1-.9 1-.9 0-1.6-.5-1.6-1 0-.6.4-1 .9-1 .6 0 1.3.4 1.6 1zm162.6 6.5c-.1 1.5-2.4 1.2-2.9-.3-.3-.9.2-1.3 1.2-1 1 .1 1.7.7 1.7 1.3zM170 286c0 .5-.4 1-.9 1-.6 0-1.3-.5-1.6-1-.3-.6.1-1 .9-1 .9 0 1.6.4 1.6 1zm283 25c0 .5-.4 1-1 1-.5 0-1-.5-1-1 0-.6.5-1 1-1 .6 0 1 .4 1 1zm-347.5 4c.3.5.1 1-.4 1-.6 0-1.1-.5-1.1-1 0-.6.2-1 .4-1 .3 0 .8.4 1.1 1zm166.5 7.6c0 .9-.5 1.4-1.2 1.2-1.8-.6-2.1-2.8-.4-2.8.9 0 1.6.7 1.6 1.6zm82 2.4c0 .5-.4 1-1 1-.5 0-1-.5-1-1 0-.6.5-1 1-1 .6 0 1 .4 1 1zm-127 3.5c0 .8-.4 1.5-1 1.5-.5 0-1-.7-1-1.5s.5-1.5 1-1.5c.6 0 1 .7 1 1.5zm-153 1.6c0 .5-.4.9-1 .9-.5 0-1-.7-1-1.6 0-.8.5-1.2 1-.9.6.3 1 1 1 1.6zm395.5 8c.4.5.9 3.2 1.2 5.8.4 4.8.4 4.8-2.8 5.5-5.7 1.1-7.6.7-9.4-2-2.1-3.2-1.3-9 1.3-9.7 3.4-.9 9.1-.7 9.7.4zm-256.7 41.6c-.2 1-1 1.8-1.8 1.8s-1.6-.8-1.8-1.8c-.2-1.2.3-1.7 1.8-1.7s2 .5 1.8 1.7zm-57.8 5.8c0 .8-.7 1.5-1.5 1.5s-1.5-.7-1.5-1.5.7-1.5 1.5-1.5 1.5.7 1.5 1.5zM323 396c0 .5-.5 1-1.1 1-.5 0-.7-.5-.4-1 .3-.6.8-1 1.1-1 .2 0 .4.4.4 1zm95 2.4c0 1.1-1.9 1.5-2.5.6-.3-.5.1-1 .9-1 .9 0 1.6.2 1.6.4zm-222 13.1c0 .8-.4 1.5-1 1.5-.5 0-1-.7-1-1.5s.5-1.5 1-1.5c.6 0 1 .7 1 1.5zm8.5 7.4c.7 1.2-1.2 2.4-2.5 1.6-1.1-.7-.4-2.5 1-2.5.5 0 1.1.4 1.5.9zM388 459c0 .5-.4 1-1 1-.5 0-1-.5-1-1 0-.6.5-1 1-1 .6 0 1 .4 1 1zm-190.4 8.1c1 1.7-1.3 3.6-2.7 2.2-1.2-1.2-.4-3.3 1.1-3.3.5 0 1.2.5 1.6 1.1zm24.2 11.6c.5 1.7-2.6 2.9-4 1.5-.6-.6-.7-1.5-.3-2.2.9-1.4 3.7-.9 4.3.7zM256 496c0 .5-.4 1-1 1-.5 0-1-.5-1-1 0-.6.5-1 1-1 .6 0 1 .4 1 1z"/></svg>